# xmcd CD database file
#
# Track frame offsets:
#	150
#	12490
#	29665
#	43675
#	62823
#	78078
#	88578
#	100660
#	114435
#	127800
#	142130
#
# Disc length: 2076 seconds
#
# Revision: 1
# Processed by: cddbd v1.5.2PL0 Copyright (c) Steve Scherf et al.
# Submitted via: CDex 1.51
#
DISCID=8c081a0b
DTITLE=Becky Hobbs - All Keyed Up
DYEAR=1989
DGENRE=Country
TTITLE0=They Always Look Better When They're Leavin'
TTITLE1=Mama Was A Working Man
TTITLE2=Do You Feel The Same Way Too?
TTITLE3=She Broke Her Promise
TTITLE4=Cowgirl's Heart
TTITLE5=I'm-A-Gonna Get To You
TTITLE6=All Keyed Up
TTITLE7=A Woman Needs
TTITLE8=Jones On The Jukebox
TTITLE9=Old Flame Burns Blue
TTITLE10=Are There Any More Like You ( Where You Came From )
EXTD=YEAR: 1989
EXTT0=
EXTT1=
EXTT2=
EXTT3=
EXTT4=
EXTT5=
EXTT6=
EXTT7=
EXTT8=
EXTT9=
EXTT10=
PLAYORDER=
